<?xml version="1.0" encoding="utf-8"?>
<!-- Generator: Adobe Illustrator 23.0.3, SVG Export Plug-In . SVG Version: 6.00 Build 0)  -->
<svg version="1.1" id="Layer_1" xmlns="http://www.w3.org/2000/svg" xmlns:xlink="http://www.w3.org/1999/xlink" x="0px" y="0px"
	 viewBox="0 0 612 792" style="enable-background:new 0 0 612 792;" xml:space="preserve">
<g>
	<g>
		<path d="M133.57,215.41h24.29v7.37h-15.3v9.12h14.31v7.3h-14.31v15.99h-8.99V215.41z"/>
		<path d="M164.67,215.41h8.99v32.23h15.82v7.54h-24.81V215.41z"/>
		<path d="M204.03,244.97l-2.81,10.21h-9.3l12.14-39.77h11.77l12.38,39.77h-9.69l-3.06-10.21H204.03z M214.13,238.27l-2.48-8.45
			c-0.68-2.35-1.39-5.33-2-7.66h-0.12c-0.58,2.34-1.18,5.36-1.82,7.67l-2.38,8.44H214.13z"/>
		<path d="M233.81,245.9c2.38,1.28,6.12,2.5,9.97,2.5c4.13,0,6.32-1.71,6.32-4.33c0-2.44-1.9-3.88-6.66-5.56
			c-6.63-2.35-10.97-5.97-10.97-11.78c0-6.78,5.69-11.94,15.04-11.94c4.53,0,7.81,0.9,10.15,2l-1.99,7.21
			c-1.58-0.75-4.44-1.89-8.3-1.89c-3.92,0-5.78,1.81-5.78,3.85c0,2.53,2.2,3.64,7.36,5.59c7.04,2.63,10.3,6.29,10.3,11.91
			c0,6.64-5.08,12.34-16.03,12.34c-4.51,0-9.02-1.23-11.23-2.47L233.81,245.9z"/>
		<path d="M274.37,215.41v15.3h14.83v-15.3h8.99v39.77h-8.99v-16.64h-14.83v16.64h-8.99v-39.77H274.37z"/>
		<path d="M306.03,215.95c2.36-0.46,7.1-0.86,11.6-0.86c5.48,0,8.85,0.54,11.76,2.23c2.78,1.48,4.74,4.19,4.74,7.84
			c0,3.5-2.05,6.8-6.53,8.46v0.15c4.54,1.19,7.92,4.66,7.92,9.75c0,3.64-1.67,6.48-4.14,8.45c-2.92,2.34-7.72,3.62-15.64,3.62
			c-4.43,0-7.71-0.29-9.72-0.59V215.95z M314.94,231.18h2.92c4.76,0,7.25-1.98,7.25-4.93c0-3.02-2.29-4.61-6.35-4.61
			c-1.97,0-3.08,0.13-3.81,0.28V231.18z M314.94,248.78c0.86,0.15,1.93,0.16,3.45,0.16c4.08,0,7.67-1.58,7.67-5.77
			c0-3.98-3.57-5.57-8.05-5.58h-3.07V248.78z"/>
		<path d="M350.88,244.97l-2.81,10.21h-9.3l12.14-39.77h11.77l12.38,39.77h-9.69l-3.06-10.21H350.88z M360.98,238.27l-2.48-8.45
			c-0.68-2.35-1.39-5.33-2-7.66h-0.12c-0.58,2.34-1.18,5.36-1.82,7.67l-2.38,8.44H360.98z"/>
		<path d="M409.54,254.08c-1.61,0.8-5.38,1.72-10.17,1.72c-13.77,0-20.87-8.61-20.87-19.94c0-13.56,9.72-21.07,21.72-21.07
			c4.68,0,8.23,0.91,9.79,1.76l-1.83,7.11c-1.79-0.78-4.34-1.49-7.55-1.49c-7.09,0-12.66,4.32-12.66,13.16
			c0,7.97,4.7,12.98,12.71,12.98c2.76,0,5.73-0.54,7.52-1.29L409.54,254.08z"/>
		<path d="M427.39,215.41h8.91v17.58h0.15c0.87-1.51,1.82-2.94,2.73-4.33l9-13.25h11.05l-13.16,16.93l13.85,22.84h-10.47
			l-9.79-17.15l-3.38,4.16v12.99h-8.91V215.41z"/>
	</g>
</g>
<polygon points="137.7,255.17 117.77,255.17 111.45,247.14 100.16,247.14 95.17,236.63 91.19,242.81 89.19,224.28 100.16,224.28 
	97.17,229.84 101.82,239.72 113.45,239.72 121.75,249.61 137.7,247.14 "/>
<path d="M406.81,246.94c0,0,11.4-5.45,12.94,0c1.53,5.45,5.79,8.17,1.36,18.89c-4.43,10.72-22.81,9.19-22.81,9.7
	c0,0.51-6.81,0-6.81,0v5.62l-10.72-7.66l9.53-8.17l-0.17,5.11c0,0,11.57,0,15.32-1.02c3.74-1.02,8.85-1.02,10.89-7.66
	c0,0,2.68-3.02-1.36-9.7c0,0-1.19-2.04-7.15,1.87L406.81,246.94z"/>
</svg>
